<?xml version="1.0" encoding="utf-8"?>
<svg viewBox="45.262 55.533 437.528 285.079" xmlns="http://www.w3.org/2000/svg" xmlns:xlink="http://www.w3.org/1999/xlink" xmlns:bx="https://boxy-svg.com">
  <defs>
    <path id="text-path-0" d="M 216.425 30.651 C 220.418 16.934 222.843 9.232 227.653 -1.465 C 233.498 -14.462 239.957 -26.549 244.407 -32.338 C 251.672 -41.79 258.676 -50.699 266.697 -57.794 C 273.189 -63.535 282.643 -70.106 290.534 -76.547"/>
  </defs>
  <path style="stroke: rgb(0, 0, 0); stroke-opacity: 0; transform-origin: 59.3118px -8.19363px; fill: rgb(38, 60, 143);" transform="matrix(0.577812, 0, 0, 0.577812, -59.311834, 8.19342)" d="M 155.534 462 A 346.133 346.133 0 0 1 172.474954845 355.039020686 L 205.393874044 365.735025912 A 311.52 311.52 0 0 0 190.147 462 Z" id="path-0" bx:shape="pie 501.667 462 311.52 346.133 270 288 1@963d0826"/>
  <text style="fill: rgb(51, 51, 51); font-family: Arial, sans-serif; font-size: 14px; text-anchor: middle; white-space: pre;" x="255.564" y="68.245" id="text-0">50</text>
  <path style="stroke: rgb(0, 0, 0); stroke-opacity: 0; transform-origin: 59.312px -8.194px; fill: rgb(33, 71, 170);" transform="matrix(0.577812, 0, 0, 0.577812, -59.31184, 8.193422)" d="M 172.474954845 355.039020686 A 346.133 346.133 0 0 1 221.639520686 258.548127268 L 249.642025912 278.893138206 A 311.52 311.52 0 0 0 205.393874044 365.735025912 Z" id="path-1" bx:shape="pie 501.667 462 311.52 346.133 288 306 1@89b57dac"/>
  <path style="stroke: rgb(0, 0, 0); stroke-opacity: 0; transform-origin: 59.312px -8.194px; fill: rgb(22, 101, 168);" transform="matrix(0.577812, 0, 0, 0.577812, -59.311849, 8.193423)" d="M 221.639520686 258.548127268 A 346.133 346.133 0 0 1 298.215127268 181.972520686 L 318.560138206 209.975025912 A 311.52 311.52 0 0 0 249.642025912 278.893138206 Z" id="path-2" bx:shape="pie 501.667 462 311.52 346.133 306 324 1@f5eed005"/>
  <path style="stroke: rgb(0, 0, 0); stroke-opacity: 0; transform-origin: 59.312px -8.194px; fill: rgb(24, 136, 182);" transform="matrix(0.577812, 0, 0, 0.577812, -59.311857, 8.193424)" d="M 298.215127268 181.972520686 A 346.133 346.133 0 0 1 394.706020686 132.807954845 L 405.402025912 165.726874044 A 311.52 311.52 0 0 0 318.560138206 209.975025912 Z" id="path-3" bx:shape="pie 501.667 462 311.52 346.133 324 342 1@196c68cb"/>
  <path style="stroke: rgb(0, 0, 0); stroke-opacity: 0; transform-origin: 59.312px -8.194px; fill: rgb(71, 171, 109);" transform="matrix(0.577812, 0, 0, 0.577812, -59.311865, 8.193425)" d="M 394.706020686 132.807954845 A 346.133 346.133 0 0 1 501.667 115.867 L 501.667 150.48 A 311.52 311.52 0 0 0 405.402025912 165.726874044 Z" id="path-4" bx:shape="pie 501.667 462 311.52 346.133 342 0 1@ef47f594"/>
  <path style="stroke: rgb(0, 0, 0); stroke-opacity: 0; transform-origin: 59.312px -8.194px; fill: rgb(170, 189, 64);" transform="matrix(0.577812, 0, 0, 0.577812, -59.311876, 8.193426)" d="M 501.667 115.867 A 346.133 346.133 0 0 1 608.627979314 132.807954845 L 597.931974088 165.726874044 A 311.52 311.52 0 0 0 501.667 150.48 Z" id="path-5" bx:shape="pie 501.667 462 311.52 346.133 0 18 1@27f3824b"/>
  <path style="stroke: rgb(0, 0, 0); stroke-opacity: 0; transform-origin: 59.312px -8.194px; fill: rgb(249, 204, 61);" transform="matrix(0.577812, 0, 0, 0.577812, -59.311884, 8.193427)" d="M 608.627979314 132.807954845 A 346.133 346.133 0 0 1 705.118872732 181.972520686 L 684.773861794 209.975025912 A 311.52 311.52 0 0 0 597.931974088 165.726874044 Z" id="path-6" bx:shape="pie 501.667 462 311.52 346.133 18 36 1@5055a737"/>
  <path style="stroke: rgb(0, 0, 0); stroke-opacity: 0; transform-origin: 59.312px -8.194px; fill: rgb(244, 163, 45);" transform="matrix(0.577812, 0, 0, 0.577812, -59.311895, 8.193428)" d="M 705.118872732 181.972520686 A 346.133 346.133 0 0 1 781.694479314 258.548127268 L 753.691974088 278.893138206 A 311.52 311.52 0 0 0 684.773861794 209.975025912 Z" id="path-7" bx:shape="pie 501.667 462 311.52 346.133 36 54 1@30f558da"/>
  <path style="stroke: rgb(0, 0, 0); stroke-opacity: 0; transform-origin: 59.312px -8.194px; fill: rgb(239, 104, 48);" transform="matrix(0.577812, 0, 0, 0.577812, -59.311903, 8.193429)" d="M 781.694479314 258.548127268 A 346.133 346.133 0 0 1 830.859045155 355.039020686 L 797.940125956 365.735025912 A 311.52 311.52 0 0 0 753.691974088 278.893138206 Z" id="path-8" bx:shape="pie 501.667 462 311.52 346.133 54 72 1@c21a7f0f"/>
  <path style="stroke: rgb(0, 0, 0); stroke-opacity: 0; transform-origin: 59.312px -8.194px; fill: rgb(218, 63, 45);" transform="matrix(0.577812, 0, 0, 0.577812, -59.311914, 8.19343)" d="M 830.859045155 355.039020686 A 346.133 346.133 0 0 1 847.8 462 L 813.187 462 A 311.52 311.52 0 0 0 797.940125956 365.735025912 Z" id="path-9" bx:shape="pie 501.667 462 311.52 346.133 72 90 1@58e2b651"/>
  <path style="stroke: rgb(0, 0, 0); stroke-opacity: 0; transform-origin: 59.312px -8.194px; fill: rgb(255, 26, 0);" transform="matrix(0.577812, 0, 0, 0.577812, -59.311922, 8.193431)" d="M 847.8 462 A 346.133 346.133 0 0 1 830.859045155 568.960979314 L 797.940125956 558.264974088 A 311.52 311.52 0 0 0 813.187 462 Z" bx:shape="pie 501.667 462 311.52 346.133 90 108 1@2d92e929"/>
  <text style="fill: rgb(51, 51, 51); font-family: Arial, sans-serif; font-size: 14px; text-anchor: middle; white-space: pre;" x="49.156" y="274.53" id="text-1">0</text>
  <text style="fill: rgb(51, 51, 51); font-family: Arial, sans-serif; font-size: 14px; text-anchor: middle; white-space: pre;" x="55.156" y="211.53" id="text-2">10</text>
  <text style="fill: rgb(51, 51, 51); font-family: Arial, sans-serif; font-size: 14px; text-anchor: middle; white-space: pre;" x="84.156" y="153.53" id="text-3">20</text>
  <text style="fill: rgb(51, 51, 51); font-family: Arial, sans-serif; font-size: 14px; text-anchor: middle; white-space: pre;" x="130.156" y="107.53" id="text-5">30</text>
  <text style="fill: rgb(51, 51, 51); font-family: Arial, sans-serif; font-size: 14px; text-anchor: middle; white-space: pre;" x="190.156" y="76.53" id="text-6">40</text>
  <text style="fill: rgb(51, 51, 51); font-family: Arial, sans-serif; font-size: 14px; text-anchor: middle; white-space: pre;" x="319.863" y="76.53" id="text-7">60</text>
  <text style="fill: rgb(51, 51, 51); font-family: Arial, sans-serif; font-size: 14px; text-anchor: middle; white-space: pre;" x="380.941" y="106.798" id="text-8">70</text>
  <text style="fill: rgb(51, 51, 51); font-family: Arial, sans-serif; font-size: 14px; text-anchor: middle; white-space: pre;" x="427.574" y="151.045" id="text-9">80</text>
  <text style="fill: rgb(51, 51, 51); font-family: Arial, sans-serif; font-size: 14px; text-anchor: middle; white-space: pre;" x="457.383" y="211.53" id="text-10">90</text>
  <text style="fill: rgb(51, 51, 51); font-family: Arial, sans-serif; font-size: 14px; text-anchor: middle; white-space: pre;" x="471.11" y="274.53" id="text-11">100</text>
  <text style="fill: rgb(51, 51, 51); font-family: Arial, sans-serif; font-size: 14px; text-anchor: middle; white-space: pre;" x="465.11" y="337.53">110+</text>
  <text style="fill: rgb(51, 51, 51); font-family: Arial, sans-serif; font-size: 30px; text-anchor: middle; white-space: pre;" transform="matrix(1, 0, 0, 1, 94.000018, -32.000012)"><tspan x="162.173" y="177.388" style="font-size: 22px;">Visual ZHR <tspan x="162.17300415039062" dy="1em">​</tspan>in the next 24 hrs<tspan x="162.17300415039062" dy="1em">​</tspan><tspan x="162.17300415039062" dy="1em">​</tspan></tspan>ZHR_NUM<tspan x="162.17300415039062" dy="1em">​</tspan><tspan>meteors/hr</tspan></text>
  <path d="M 338.046 135.768 H 506.196 L 501.446 128.768 L 528.046 136.268 L 501.446 143.768 L 506.196 136.768 H 338.046 V 135.768 Z" style="stroke: rgb(0, 0, 0); fill: rgb(255, 255, 255); stroke-opacity: 0.5; transform-origin: 338.044px 136.265px;" transform="rotate(-90 -83.032763 135.420358) translate(-83.032763, 135.420358) skewX(0) scale(1 1)" id="hand" bx:shape="arrow 338.046 128.768 190 15 1 26.6 4.75 1@fd640d97"/>
  <ellipse style="fill: rgb(216, 216, 216); stroke: rgb(128, 128, 128);" cx="255" cy="271.7" rx="10" ry="10" id="ellipse-0"/>
  <path style="stroke: rgb(0, 0, 0); stroke-opacity: 0; transform-origin: 59.312px -8.194px; fill: rgb(162, 162, 162);" transform="matrix(0.577812, 0, 0, 0.577812, -59.31184, 8.193422)" d="M 176.302 462 A 325.365 325.365 0 0 1 271.599202139 231.932202139 L 281.389095525 241.722095525 A 311.52 311.52 0 0 0 190.147 462 Z" bx:shape="pie 501.667 462 311.52 325.365 270 315 1@7ad5a13f"/>
  <text style="fill: rgb(141, 141, 141); font-family: Arial, sans-serif; font-size: 12px; font-weight: 700; white-space: pre; transform-box: fill-box; transform-origin: 50% 50%;" transform="matrix(0.978148, -0.207912, 0.207912, 0.978148, -139.283329, 235.679893)"><textPath xlink:href="#text-path-0">Sporadic background</textPath></text>
</svg>